<svg width="20" height="20" viewBox="0 0 20 20" fill="none" xmlns="http://www.w3.org/2000/svg">
  <g clip-path="url(#clip0_249_102)">
    <path d="M8.51248 11.505C8.51248 10.9925 8.75873 10.1775 10.6712 10.1775C11.2575 10.1775 11.6187 10.22 12.1037 10.3287C11.9487 12.3362 10.9662 12.6012 10.0112 12.6012C9.48873 12.6012 8.51248 12.3287 8.51248 11.505Z" fill="white" />
    <path
      d="M3.2375 20H16.7625C17.6211 20 18.4446 19.6589 19.0518 19.0518C19.6589 18.4446 20 17.6211 20 16.7625V3.2375C20 2.37886 19.6589 1.55539 19.0518 0.948242C18.4446 0.341093 17.6211 0 16.7625 0L3.2375 0C2.37886 0 1.55539 0.341093 0.948242 0.948242C0.341093 1.55539 0 2.37886 0 3.2375L0 16.7625C0 17.6211 0.341093 18.4446 0.948242 19.0518C1.55539 19.6589 2.37886 20 3.2375 20ZM7.3325 7.3875C8.04125 6.375 8.97625 5.98 10.27 5.98C11.1825 5.98 11.9587 6.2875 12.5138 6.86875C13.0675 7.45125 13.3837 8.28375 13.4563 9.3475C13.7629 9.47583 14.0454 9.62708 14.3038 9.80125C15.3438 10.5 15.9163 11.545 15.9163 12.7425C15.9163 15.2888 13.8288 17.5 10.0513 17.5C6.8075 17.5 3.4375 15.6125 3.4375 9.995C3.4375 4.4075 6.70125 2.5 10.0413 2.5C11.5837 2.5 15.2025 2.7275 16.5625 7.22125L15.2875 7.55125C14.235 4.35125 12.0287 3.84125 10.0075 3.84125C6.66375 3.84125 4.77375 5.87625 4.77375 10.2075C4.77375 14.0913 6.88625 16.1538 10.0513 16.1538C12.655 16.1538 14.5963 14.8012 14.5963 12.82C14.5963 11.4712 13.4637 10.8263 13.405 10.8263C13.1838 11.9825 12.5913 13.9287 9.98875 13.9287C8.4725 13.9287 7.16375 12.8812 7.16375 11.5087C7.16375 9.54875 9.02375 8.83875 10.4925 8.83875C11.0425 8.83875 11.705 8.87625 12.0512 8.94625C12.0512 8.34875 11.5463 7.32625 10.2688 7.32625C9.13 7.32625 8.81875 7.68625 8.45625 8.10625L8.42625 8.14C8.17375 7.97125 7.3325 7.3875 7.3325 7.3875Z"
      fill="white"
    />
  </g>
  <defs>
    <clipPath id="clip0_249_102">
      <rect width="20" height="20" fill="white" />
    </clipPath>
  </defs>
</svg>
