<svg width="25" height="25" viewBox="0 0 25 25" fill="none" xmlns="http://www.w3.org/2000/svg">
  <g clip-path="url(#clip0_250_113)">
    <rect x="7.25" y="7.25" width="10.5" height="10.5" fill="white" />
    <path
      d="M15.6003 1.80505C15.1965 1.39186 14.7142 1.06354 14.1818 0.839383C13.6494 0.615227 13.0775 0.499756 12.4998 0.499756C11.9221 0.499756 11.3502 0.615227 10.8177 0.839383C10.2853 1.06354 9.80302 1.39186 9.39927 1.80505L8.46627 2.76205L7.13127 2.74555C6.55339 2.73871 5.97999 2.84749 5.44476 3.06548C4.90954 3.28348 4.42331 3.60629 4.01466 4.01494C3.60601 4.42359 3.2832 4.90982 3.0652 5.44504C2.84721 5.98026 2.73843 6.55367 2.74527 7.13155L2.76027 8.46655L1.80627 9.39955C1.39308 9.8033 1.06476 10.2856 0.840604 10.818C0.616448 11.3505 0.500977 11.9223 0.500977 12.5C0.500977 13.0778 0.616448 13.6496 0.840604 14.1821C1.06476 14.7145 1.39308 15.1968 1.80627 15.6005L2.76177 16.5336L2.74527 17.8685C2.73843 18.4464 2.84721 19.0198 3.0652 19.5551C3.2832 20.0903 3.60601 20.5765 4.01466 20.9852C4.42331 21.3938 4.90954 21.7166 5.44476 21.9346C5.97999 22.1526 6.55339 22.2614 7.13127 22.2545L8.46627 22.2395L9.39927 23.1935C9.80302 23.6067 10.2853 23.9351 10.8177 24.1592C11.3502 24.3834 11.9221 24.4988 12.4998 24.4988C13.0775 24.4988 13.6494 24.3834 14.1818 24.1592C14.7142 23.9351 15.1965 23.6067 15.6003 23.1935L16.5333 22.238L17.8683 22.2545C18.4461 22.2614 19.0196 22.1526 19.5548 21.9346C20.09 21.7166 20.5762 21.3938 20.9849 20.9852C21.3935 20.5765 21.7163 20.0903 21.9343 19.5551C22.1523 19.0198 22.2611 18.4464 22.2543 17.8685L22.2393 16.5336L23.1933 15.6005C23.6065 15.1968 23.9348 14.7145 24.1589 14.1821C24.3831 13.6496 24.4986 13.0778 24.4986 12.5C24.4986 11.9223 24.3831 11.3505 24.1589 10.818C23.9348 10.2856 23.6065 9.8033 23.1933 9.39955L22.2378 8.46655L22.2543 7.13155C22.2611 6.55367 22.1523 5.98026 21.9343 5.44504C21.7163 4.90982 21.3935 4.42359 20.9849 4.01494C20.5762 3.60629 20.09 3.28348 19.5548 3.06548C19.0196 2.84749 18.4461 2.73871 17.8683 2.74555L16.5333 2.76055L15.6003 1.80505ZM16.0308 10.781L11.5308 15.281C11.4611 15.3509 11.3783 15.4063 11.2872 15.4441C11.1961 15.4819 11.0984 15.5014 10.9998 15.5014C10.9011 15.5014 10.8034 15.4819 10.7123 15.4441C10.6212 15.4063 10.5384 15.3509 10.4688 15.281L8.21877 13.031C8.14904 12.9613 8.09372 12.8785 8.05598 12.7874C8.01825 12.6963 7.99882 12.5987 7.99882 12.5C7.99882 12.4014 8.01825 12.3038 8.05598 12.2127C8.09372 12.1216 8.14904 12.0388 8.21877 11.969C8.2885 11.8993 8.37128 11.844 8.46239 11.8063C8.5535 11.7685 8.65115 11.7491 8.74977 11.7491C8.84838 11.7491 8.94604 11.7685 9.03714 11.8063C9.12825 11.844 9.21104 11.8993 9.28077 11.969L10.9998 13.6895L14.9688 9.71905C15.1096 9.57822 15.3006 9.4991 15.4998 9.4991C15.6989 9.4991 15.8899 9.57822 16.0308 9.71905C16.1716 9.85988 16.2507 10.0509 16.2507 10.25C16.2507 10.4492 16.1716 10.6402 16.0308 10.781Z"
      fill="#4848F8"
    />
  </g>
  <defs>
    <clipPath id="clip0_250_113">
      <rect x="0.5" y="0.5" width="24" height="24" fill="white" />
    </clipPath>
  </defs>
</svg>
